<svg width="2675" height="285" viewBox="0 0 2675 285" fill="none" xmlns="http://www.w3.org/2000/svg">
<path d="M0 256.5L12.4462 232.72C24.7066 209.297 50.1562 161.203 74.3056 166.28C99.0122 171 124.462 228 148.611 242.25C173.318 256.5 198.767 228 222.917 209.03C247.623 189.703 273.073 180.797 297.222 156.75C321.929 132.703 347.378 95.2969 371.528 75.9703C396.234 57 421.684 57 445.833 47.4703C470.54 38.2969 495.99 18.7031 520.139 18.9703C544.845 18.7031 570.295 38.2969 594.444 57C619.151 75.7031 644.601 95.2969 668.75 95.0297C693.457 95.2969 718.906 75.7031 743.056 99.75C767.762 123.797 793.212 189.703 817.361 189.97C842.068 189.703 867.517 123.797 891.667 118.72C916.373 114 941.823 171 965.972 185.25C990.679 199.5 1016.13 171 1040.28 171C1064.98 171 1090.43 199.5 1114.58 189.97C1139.29 180.797 1164.74 132.703 1188.89 114C1213.6 95.2969 1239.05 104.203 1263.19 99.75C1287.9 95.2969 1313.35 75.7031 1337.5 90.2203C1362.21 104.203 1387.66 152.297 1411.81 166.28C1436.51 180.797 1461.96 161.203 1486.11 152.03C1510.82 142.5 1536.27 142.5 1560.42 147.22C1585.12 152.297 1610.57 161.203 1634.72 166.28C1659.43 171 1684.88 171 1709.03 142.5C1733.73 114 1759.18 57 1783.33 42.75C1808.04 28.5 1833.49 57 1857.64 71.25C1882.35 85.5 1907.8 85.5 1931.94 114C1956.65 142.5 1982.1 199.5 2006.25 228C2030.96 256.5 2056.41 256.5 2080.56 251.78C2105.26 246.703 2130.71 237.797 2154.86 199.5C2179.57 161.203 2205.02 95.2969 2229.17 71.25C2253.87 47.2031 2279.32 66.7969 2303.47 80.7797C2328.18 95.2969 2353.63 104.203 2377.78 95.0297C2402.48 85.5 2427.93 57 2452.08 66.5297C2476.79 75.7031 2502.24 123.797 2526.39 128.25C2551.1 132.703 2576.55 95.2969 2600.69 95.0297C2625.4 95.2969 2650.85 132.703 2662 152.03L2675 171V0H2662.55C2650.29 0 2624.84 0 2600.69 0C2575.99 0 2550.54 0 2526.39 0C2501.68 0 2476.23 0 2452.08 0C2427.38 0 2401.93 0 2377.78 0C2353.07 0 2327.62 0 2303.47 0C2278.77 0 2253.32 0 2229.17 0C2204.46 0 2179.01 0 2154.86 0C2130.15 0 2104.7 0 2080.56 0C2055.85 0 2030.4 0 2006.25 0C1981.54 0 1956.09 0 1931.94 0C1907.24 0 1881.79 0 1857.64 0C1832.93 0 1807.48 0 1783.33 0C1758.63 0 1733.18 0 1709.03 0C1684.32 0 1658.87 0 1634.72 0C1610.02 0 1584.57 0 1560.42 0C1535.71 0 1510.26 0 1486.11 0C1461.4 0 1435.95 0 1411.81 0C1387.1 0 1361.65 0 1337.5 0C1312.79 0 1287.34 0 1263.19 0C1238.49 0 1213.04 0 1188.89 0C1164.18 0 1138.73 0 1114.58 0C1089.88 0 1064.43 0 1040.28 0C1015.57 0 990.122 0 965.972 0C941.266 0 915.816 0 891.667 0C866.96 0 841.51 0 817.361 0C792.654 0 767.205 0 743.056 0C718.349 0 692.899 0 668.75 0C644.043 0 618.594 0 594.444 0C569.738 0 544.288 0 520.139 0C495.432 0 469.983 0 445.833 0C421.127 0 395.677 0 371.528 0C346.821 0 321.372 0 297.222 0C272.516 0 247.066 0 222.917 0C198.21 0 172.76 0 148.611 0C123.905 0 98.4549 0 74.3056 0C49.599 0 24.1493 0 13.0035 0H0V256.5Z" fill="url(#paint0_linear_14_12)"/>
<defs>
<linearGradient id="paint0_linear_14_12" x1="0" y1="128.25" x2="2675" y2="128.25" gradientUnits="userSpaceOnUse">
<stop offset="0.305" stop-color="#7480AF"/>
<stop offset="1" stop-color="#D1C8D7"/>
</linearGradient>
</defs>
</svg>
